<?xml version="1.0" encoding="utf-8"?>
<!-- Generator: Adobe Illustrator 22.0.1, SVG Export Plug-In . SVG Version: 6.00 Build 0)  -->
<svg version="1.1" id="Layer_1" xmlns="http://www.w3.org/2000/svg" xmlns:xlink="http://www.w3.org/1999/xlink" x="0px" y="0px"
	 viewBox="0 0 720 144" style="enable-background:new 0 0 720 144;" xml:space="preserve">
<path d="M528.3,75c0,19.9,0,39.8,0,60.4c-1.3,0-43.9,0-62.8,0.1l-21.2-20.3c0,7.3,0,13.5,0,20.3c-1.7,0-44.3,0.1-63.1-0.1
	l-20.8-19.9c21.4,0,41.9,0,62.6,0c0-21.3,0-42.1,0-63.4c-13.8,0-27.6,0-41.5,0c0-7.1,0-13.8,0-20.9c0.1,0,0.2,0,0.3,0
	c0,0,0-0.1,0-0.1c13.7,0,27.4,0,41.5,0c0-6.9,0-21.3,0-21.4c0.1,0.1,21,21.4,21,21.4c0,3.5,0.1,18.9,0.1,20.7c0,0,0,0,0,0
	c0,0,0,0,0,0c-6.7,0-13.3,0-20.8,0c1.2,1.5,1.8,2.4,2.5,3.1c5.3,5.4,10.8,10.7,16,16.2c1.3,1.4,2.2,3.6,2.2,5.5
	c0.2,11.4,0.1,22.9,0.1,34.4c0,1.4,0,2.7,0,4.3c21.2,0,42,0,63.2,0c0-20.7,0-41.3,0-62.8c7.1,7.1,13.6,13.6,20.1,20.1
	C528.1,72.8,528.3,74,528.3,75z M674.8,94.7c-0.3,0.2,0.7,13.6,0.7,20.3c-21.1,0-42,0-63.1,0c0-1.7,0-3.2,0-4.7
	c0-25.3,0-50.5,0-75.8c0-1.4,0-3.4-0.8-4.2c-6.4-6.6-12.9-13-20.2-20.1c0,35.5,0,70.1,0,105.1c-6.9,0-14.3,0-20.7,0
	c0-0.1,20.9,20.1,20.9,20.1c6.8,0.1,13.6,0,20.9,0c0-6.7,0-12.9,0-20c1.5,1.4,20.6,20,20.6,20s62.1,0,63.4,0
	c0-1.7-0.3-20.4-0.3-20.4L674.8,94.7z M190.9,29.9c-6.3-6.4-12.7-12.7-19.9-19.8c0,35.7,0,70.3,0,105.3c-20.9,0-41.4,0-62.7,0
	c6.4,6.3,20.2,19.9,20.2,19.9c18.9,0.2,63.5,0.1,63.5,0.1s0.1-68.6,0-102.5C192,31.8,191.6,30.6,190.9,29.9z M339.1,10.1
	c0,35.6,0,70.2,0,105.1c-20.8,0-41.2,0-62.6,0c6.9,6.9,13.2,13.3,19.5,19.5c0.4,0.4,1.4,0.6,2.1,0.6c20.5,0,41.2,0,62.1,0
	c0-0.7,0-1.6,0-2.2c0-33.2,0.1-68.7,0-101.9L339.1,10.1z M86.9,10.3c0,7.3,0,13.8,0,20.6c-14.1,0-27.8,0-41.6,0c0,21,0,41.8,0,62.8
	c6.9,0,13.6,0,20.8,0c0-14,0-27.7,0-41.9c14.1,0,27.9,0,42,0l-0.1-20.8L86.9,10.3z M86.9,94.5c0,7.3,0,13.8,0,20.8
	c-20.8,0-41.2,0-62.6,0L45,135.2c18.8,0.2,40.2,0.1,59,0.1c1.2,0,2.4,0,4.1,0v-20L86.9,94.5z M255.2,94.2c0,7.5,0,13.9,0,21
	c-21,0-41.4,0-62.8,0l21,20c18.9,0.1,40,0.1,58.9,0.1c1.2,0,2.4,0,3.5,0l-0.2-19.9C275.6,115.4,257,96,255.2,94.2z M233.8,93.2
	c0.1-20.3,0.1-40.5,0.1-60.8c0-0.9-0.5-2-1.1-2.6c-6.3-6.4-12.6-12.6-19.5-19.4c0,28.2,0,55.8,0,83.4c6.9,0,13.6,0,20.1,0
	C233.7,93.4,233.8,93.3,233.8,93.2z M654.4,32.8c0-0.9-0.3-2.1-0.9-2.7c-6.3-6.4-12.8-12.8-19.7-19.7c0,28.3,0,55.7,0,83.2
	c7,0,13.7,0,20.6,0C654.5,73.1,654.5,52.9,654.4,32.8z M528.3,30.9c-5.5-5.7-19.9-19.5-20.9-20.2c0,6.9,0,13.2,0,20.2
	c-14.1,0-27.9,0-41.6,0c0,7.2,0,13.9,0,20.7c21,0,41.7,0,62.5,0L528.3,30.9z M549.3,115.3c-6.9,0-13.4,0-20.7,0l20.7,19.9
	c6.7,0.1,13.8,0,20.7,0c0-20.9,0-41.3,0-61.8c-7,0-13.8,0-20.7,0C549.3,87.4,549.3,101,549.3,115.3z M149.9,31.2c-7,0-13.7,0-20.4,0
	c0,21,0,41.7,0,62.5c6.9,0,13.6,0,20.4,0C149.9,72.7,149.9,52,149.9,31.2z M318,31c-6.9,0-13.6,0-20.3,0c0,21,0,41.8,0,62.6
	c7,0,13.6,0,20.3,0C318,72.7,318,51.9,318,31z M401.8,93.9c0-7.2,0-13.8,0-20.5c-13.6,0-26.9,0-41.2,0c7.1,7,13.5,13.5,20,19.9
	c0.3,0.3,0.9,0.6,1.3,0.6C388.6,93.9,395.2,93.9,401.8,93.9z M465.8,93.8c6.8,0,13.5,0,20.3,0c0-7.1,0-13.6,0-20.4
	c-13.6,0-27,0-41.3,0c6.9,6.9,13.3,13.3,19.7,19.7C464.9,93.4,465.4,93.8,465.8,93.8z M549.6,51.5c7,0,13.7,0,20.6,0
	c0-6.9,0-13.5,0-20.3c-7.1,0-13.9,0-20.6,0C549.6,38.1,549.6,44.8,549.6,51.5z"/>
</svg>
